# xmcd
#
# Track frame offsets:
#	150
#	13773
#	28296
#	48224
#	61874
#	81244
#	93359
#	104437
#	116820
#	123566
#	146797
#	157323
#	174331
#	188572
#	205465
#	222719
#	233710
#	244548
#
# Disc length: 3435 seconds
#
# Revision: 0
# Processed by: cddbd v1.5.2PL0 Copyright (c) Steve Scherf et al.
# Submitted via: EZCDAudioConverter 7.1.5.1
#
DISCID=080d6912
DTITLE=Artistas Varios - Antioquia Vive La Musica 2009 CD2
DYEAR=2009
DGENRE=Musica Colombiana
TTITLE0=Coral Acompaz Me Zona - Soy Colombiano
TTITLE1=Coro Juvenil "Convozcanto" - Sensacion
TTITLE2=Orquesta de Cuerdas Concertantes - Ancestro
TTITLE3=Conjunto Instrumental Aletheia - Amalia
TTITLE4=Coral Mons. Alfonso Uribe Jaramillo - Bambuco infantil
TTITLE5=Coro Infantil y Juvenil de Marinilla - Un canto por la paz
TTITLE6=Coro Instrumental Kiru - El Titiribiseño
TTITLE7=Trio Santo Remedio - El tigre
TTITLE8=Coral Ars Nova - Caliche
TTITLE9=Coral Acompaz Me Zona - Sabor a mi America
TTITLE10=Orquesta de Cuerdas Concertantes - Canta llano
TTITLE11=Conjunto Instrumental Aletheia - Todo miel
TTITLE12=Coro Juvenil "Convozcanto" - La pobre viejecita
TTITLE13=Coral Mons. Alfonso Uribe Jaramillo - La refalosa del adios
TTITLE14=Coro Instrumental Kiru - Parranda campesina
TTITLE15=Trio Santo Remedio - Albores de Junio
TTITLE16=Coro Infantil y Juvenil de Marinilla - A San Andres y Providencia
TTITLE17=Coral Ars Nova - Cancion de cuna para niños negros
EXTD=
EXTT0=
EXTT1=
EXTT2=
EXTT3=
EXTT4=
EXTT5=
EXTT6=
EXTT7=
EXTT8=
EXTT9=
EXTT10=
EXTT11=
EXTT12=
EXTT13=
EXTT14=
EXTT15=
EXTT16=
EXTT17=
PLAYORDER=
